<svg xmlns="http://www.w3.org/2000/svg" width="25" height="25">
    <path style="stroke:none;fill-rule:nonzero;fill:#1f1e1e;fill-opacity:1" d="M21.906 15.625H9.184l.285 1.563h11.648c.668 0 1.164.699 1.016 1.43l-.238 1.187c.808.441 1.37 1.379 1.37 2.46 0 1.524-1.109 2.758-2.468 2.735-1.293-.02-2.36-1.203-2.395-2.66a2.91 2.91 0 0 1 .73-2.027h-9.097c.45.496.73 1.187.73 1.953 0 1.554-1.152 2.804-2.546 2.73-1.239-.062-2.246-1.191-2.313-2.582-.05-1.078.453-2.023 1.219-2.52L4.075 3.126H1.042C.465 3.125 0 2.602 0 1.953v-.781C0 .523.465 0 1.043 0h4.45c.495 0 .921.39 1.019.938l.398 2.187h17.047c.668 0 1.164.7 1.016 1.43L22.922 14.71c-.11.535-.531.914-1.016.914Zm-4.199-7.422h-2.082V6.25c0-.43-.313-.781-.695-.781h-.696c-.382 0-.691.351-.691.781v1.953h-2.086c-.383 0-.691.352-.691.781v.782c0 .43.308.78.691.78h2.086V12.5c0 .43.309.781.691.781h.696c.383 0 .695-.351.695-.781v-1.953h2.082c.387 0 .695-.352.695-.781v-.782c0-.43-.308-.78-.695-.78Zm0 0"/>
</svg>
