<svg xmlns="http://www.w3.org/2000/svg" width="128" height="128">
    <path style="stroke:none;fill-rule:nonzero;fill:#1f1e1e;fill-opacity:1" d="M28.191 35.809C12.621 35.809 0 48.429 0 64c0 15.57 12.621 28.191 28.191 28.191C43.547 91.895 55.84 79.36 55.84 64c0-15.36-12.293-27.895-27.649-28.191Zm0 4.586c.266 0 .832 0 1.122.011v2.203c-.375-.007-.747-.015-1.122-.015a21.257 21.257 0 0 0-15.125 6.265c-4.027 4-6.28 9.45-6.265 15.125 0 5.72 2.222 11.094 6.265 15.125a21.257 21.257 0 0 0 15.125 6.266c11.25-.02 20.57-8.73 21.352-19.95v-.32H34.938v-2.187h15.898l.945-.008v1.074a23.44 23.44 0 0 1-6.902 16.684 23.474 23.474 0 0 1-16.691 6.91c-6.293 0-12.215-2.453-16.696-6.91a23.432 23.432 0 0 1-6.894-16.684c.015-13.027 10.57-23.582 23.593-23.601Zm85.672 4.683c-11.789 0-17.984 6.438-17.984 18.707 0 12.215 5.598 18.828 17.918 18.828 5.652 0 11.195-1.441 14.203-3.547V61.383h-14.613v6.793h6.851v6.375c-1.261.48-3.73.965-6.078.965-7.574 0-10.101-3.852-10.101-11.672 0-7.453 2.398-11.848 9.984-11.848 4.215 0 6.613 1.32 8.602 3.848l5.238-4.809c-3.192-4.57-8.785-5.957-14.028-5.957Zm-44.87.543v36.45h25.866v-7.094H77.418v-29.36ZM19.187 51.61a3.386 3.386 0 1 1 0 6.774 3.388 3.388 0 0 1-3.387-3.387 3.388 3.388 0 0 1 3.386-3.387Zm7.882.012h2.242V74.13h5.61v2.207H27.07Zm0 0"/>
</svg>
